<svg xmlns="http://www.w3.org/2000/svg" xmlns:xlink="http://www.w3.org/1999/xlink" width="500" zoomAndPan="magnify" viewBox="0 0 375 149.999998" height="200" preserveAspectRatio="xMidYMid meet" version="1.0"><defs><g/><clipPath id="1e05048eaa"><rect x="0" width="111" y="0" height="150"/></clipPath><clipPath id="194219f64d"><rect x="0" width="170" y="0" height="150"/></clipPath><clipPath id="48db7d81a1"><rect x="0" width="117" y="0" height="32"/></clipPath></defs><path fill="#000000" d="M 178.3125 60.394531 C 178.3125 60.394531 201.578125 75.25 196.964844 80.984375 C 192.351562 86.714844 169.796875 75.175781 169.796875 75.175781 C 169.796875 75.175781 178.023438 99.878906 170.851562 102.9375 C 163.683594 105.996094 153.773438 81.023438 153.773438 81.023438 C 153.773438 81.023438 143.539062 105.042969 136.738281 102.96875 C 129.9375 100.898438 137.738281 75.207031 137.738281 75.207031 C 137.738281 75.207031 114.199219 87.339844 110.582031 81.066406 C 106.96875 74.792969 129.195312 60.441406 129.195312 60.441406 C 129.195312 60.441406 103.21875 54.375 104.625 47.476562 C 106.035156 40.578125 132.140625 43.640625 132.140625 43.640625 C 132.140625 43.640625 115.800781 22.335938 121.65625 17.917969 C 127.511719 13.5 145.199219 32.664062 145.199219 32.664062 C 145.199219 32.664062 146.199219 6.925781 153.699219 6.21875 C 161.203125 5.507812 162.253906 32.648438 162.253906 32.648438 C 162.253906 32.648438 179.273438 13.039062 185.769531 17.851562 C 192.265625 22.667969 175.332031 43.601562 175.332031 43.601562 C 175.332031 43.601562 201.648438 39.964844 202.855469 47.378906 C 204.0625 54.796875 178.3125 60.394531 178.3125 60.394531 Z M 178.3125 60.394531 " fill-opacity="1" fill-rule="nonzero"/><g transform="matrix(1, 0, 0, 1, 0, -0.000000000000007527)"><g clip-path="url(#1e05048eaa)"><g fill="#000000" fill-opacity="1"><g transform="translate(0.452872, 105.907532)"><g><path d="M 43.6875 -95.546875 L 43.6875 -62.796875 L 65.515625 -62.796875 L 65.515625 -95.546875 L 101.015625 -95.546875 L 101.015625 0 L 65.515625 0 L 65.515625 -32.765625 L 43.6875 -32.765625 L 43.6875 0 L 8.1875 0 L 8.1875 -95.546875 Z M 43.6875 -95.546875 "/></g></g></g></g></g><g transform="matrix(1, 0, 0, 1, 198, -0.000000000000007527)"><g clip-path="url(#194219f64d)"><g fill="#000000" fill-opacity="1"><g transform="translate(1.371175, 105.907532)"><g><path d="M 37.53125 -25.9375 C 39.257812 -25.9375 40.601562 -26.367188 41.5625 -27.234375 C 42.519531 -28.097656 43 -29.03125 43 -30.03125 C 43 -31.207031 42.109375 -32.226562 40.328125 -33.09375 C 38.554688 -33.957031 36.28125 -34.910156 33.5 -35.953125 C 30.726562 -37.003906 27.769531 -38.28125 24.625 -39.78125 C 21.488281 -41.289062 18.507812 -43.203125 15.6875 -45.515625 C 12.875 -47.835938 10.578125 -50.726562 8.796875 -54.1875 C 7.023438 -57.644531 6.140625 -61.878906 6.140625 -66.890625 C 6.140625 -72.160156 7.734375 -77.113281 10.921875 -81.75 C 14.109375 -86.394531 18.613281 -90.195312 24.4375 -93.15625 C 30.257812 -96.113281 37.128906 -97.59375 45.046875 -97.59375 C 51.234375 -97.59375 56.625 -96.84375 61.21875 -95.34375 C 65.8125 -93.84375 69.632812 -92.09375 72.6875 -90.09375 C 75.738281 -88.09375 78.035156 -86.335938 79.578125 -84.828125 C 81.128906 -83.328125 81.90625 -82.578125 81.90625 -82.578125 L 68.9375 -62.109375 C 68.9375 -62.109375 68.113281 -62.742188 66.46875 -64.015625 C 64.832031 -65.285156 62.671875 -66.535156 59.984375 -67.765625 C 57.304688 -68.992188 54.375 -69.609375 51.1875 -69.609375 C 49.457031 -69.609375 48.113281 -69.175781 47.15625 -68.3125 C 46.207031 -67.445312 45.734375 -66.515625 45.734375 -65.515625 C 45.734375 -64.421875 46.617188 -63.421875 48.390625 -62.515625 C 50.160156 -61.609375 52.457031 -60.628906 55.28125 -59.578125 C 58.101562 -58.535156 61.082031 -57.265625 64.21875 -55.765625 C 67.363281 -54.265625 70.320312 -52.351562 73.09375 -50.03125 C 75.875 -47.707031 78.148438 -44.816406 79.921875 -41.359375 C 81.691406 -37.898438 82.578125 -33.671875 82.578125 -28.671875 C 82.578125 -23.484375 80.984375 -18.546875 77.796875 -13.859375 C 74.617188 -9.171875 70.140625 -5.347656 64.359375 -2.390625 C 58.578125 0.566406 51.6875 2.046875 43.6875 2.046875 C 36.21875 2.046875 29.796875 1.226562 24.421875 -0.40625 C 19.054688 -2.039062 14.664062 -3.953125 11.25 -6.140625 C 7.84375 -8.328125 5.34375 -10.238281 3.75 -11.875 C 2.15625 -13.507812 1.359375 -14.328125 1.359375 -14.328125 L 14.328125 -34.8125 C 14.328125 -34.8125 14.894531 -34.351562 16.03125 -33.4375 C 17.175781 -32.53125 18.769531 -31.507812 20.8125 -30.375 C 22.863281 -29.238281 25.320312 -28.210938 28.1875 -27.296875 C 31.050781 -26.390625 34.164062 -25.9375 37.53125 -25.9375 Z M 37.53125 -25.9375 "/></g></g></g><g fill="#000000" fill-opacity="1"><g transform="translate(78.347736, 105.907532)"><g><path d="M 2.734375 -95.546875 L 90.09375 -95.546875 L 90.09375 -64.15625 L 64.15625 -64.15625 L 64.15625 0 L 28.671875 0 L 28.671875 -64.15625 L 2.734375 -64.15625 Z M 2.734375 -95.546875 "/></g></g></g></g></g><g transform="matrix(1, 0, 0, 1, 129, 114)"><g clip-path="url(#48db7d81a1)"><g fill="#000000" fill-opacity="1"><g transform="translate(0.643542, 23.374878)"><g><path d="M 1.65625 0 L 1.65625 -22.15625 L 16.203125 -22.15625 C 18.691406 -22.15625 20.628906 -21.625 22.015625 -20.5625 C 23.410156 -19.507812 24.109375 -18.023438 24.109375 -16.109375 C 24.109375 -14.953125 23.78125 -13.953125 23.125 -13.109375 C 22.476562 -12.273438 21.570312 -11.691406 20.40625 -11.359375 L 20.40625 -11.328125 C 21.757812 -11.035156 22.804688 -10.429688 23.546875 -9.515625 C 24.296875 -8.609375 24.671875 -7.476562 24.671875 -6.125 C 24.671875 -4.21875 23.953125 -2.71875 22.515625 -1.625 C 21.085938 -0.539062 19.097656 0 16.546875 0 Z M 7.4375 -12.96875 L 14.84375 -12.96875 C 15.9375 -12.96875 16.789062 -13.210938 17.40625 -13.703125 C 18.019531 -14.191406 18.328125 -14.847656 18.328125 -15.671875 C 18.328125 -16.523438 18.019531 -17.1875 17.40625 -17.65625 C 16.789062 -18.125 15.9375 -18.359375 14.84375 -18.359375 L 7.4375 -18.359375 Z M 7.40625 -3.828125 L 15.0625 -3.828125 C 16.238281 -3.828125 17.171875 -4.078125 17.859375 -4.578125 C 18.546875 -5.085938 18.890625 -5.789062 18.890625 -6.6875 C 18.890625 -7.601562 18.546875 -8.316406 17.859375 -8.828125 C 17.171875 -9.347656 16.238281 -9.609375 15.0625 -9.609375 L 7.40625 -9.609375 Z M 7.40625 -3.828125 "/></g></g></g><g fill="#000000" fill-opacity="1"><g transform="translate(26.026338, 23.374878)"><g><path d="M 7.96875 0.53125 C 5.832031 0.53125 4.148438 -0.046875 2.921875 -1.203125 C 1.703125 -2.367188 1.09375 -3.96875 1.09375 -6 L 1.09375 -15.921875 L 6.3125 -15.921875 L 6.3125 -7 C 6.3125 -5.8125 6.660156 -4.878906 7.359375 -4.203125 C 8.054688 -3.535156 9.023438 -3.203125 10.265625 -3.203125 C 11.753906 -3.203125 12.941406 -3.625 13.828125 -4.46875 C 14.710938 -5.320312 15.15625 -6.476562 15.15625 -7.9375 L 15.15625 -15.921875 L 20.34375 -15.921875 L 20.34375 0 L 15.859375 0 L 15.21875 -3.421875 L 15.1875 -3.421875 C 14.539062 -2.203125 13.585938 -1.238281 12.328125 -0.53125 C 11.078125 0.175781 9.625 0.53125 7.96875 0.53125 Z M 7.96875 0.53125 "/></g></g></g><g fill="#000000" fill-opacity="1"><g transform="translate(47.614154, 23.374878)"><g><path d="M 9.296875 0.5 C 7.597656 0.5 6.101562 0.144531 4.8125 -0.5625 C 3.53125 -1.269531 2.53125 -2.253906 1.8125 -3.515625 C 1.101562 -4.773438 0.75 -6.257812 0.75 -7.96875 C 0.75 -9.664062 1.101562 -11.148438 1.8125 -12.421875 C 2.53125 -13.703125 3.53125 -14.691406 4.8125 -15.390625 C 6.101562 -16.097656 7.597656 -16.453125 9.296875 -16.453125 C 10.960938 -16.453125 12.429688 -16.09375 13.703125 -15.375 C 14.972656 -14.664062 15.910156 -13.675781 16.515625 -12.40625 L 16.546875 -12.40625 L 16.546875 -23.078125 L 21.78125 -23.078125 L 21.78125 0 L 17.328125 0 L 16.609375 -3.546875 L 16.578125 -3.546875 C 15.972656 -2.285156 15.023438 -1.296875 13.734375 -0.578125 C 12.441406 0.140625 10.960938 0.5 9.296875 0.5 Z M 11.359375 -3.484375 C 12.953125 -3.484375 14.242188 -3.898438 15.234375 -4.734375 C 16.234375 -5.578125 16.734375 -6.65625 16.734375 -7.96875 C 16.734375 -9.269531 16.234375 -10.335938 15.234375 -11.171875 C 14.242188 -12.015625 12.953125 -12.4375 11.359375 -12.4375 C 9.753906 -12.4375 8.445312 -12.015625 7.4375 -11.171875 C 6.4375 -10.335938 5.9375 -9.269531 5.9375 -7.96875 C 5.9375 -6.65625 6.4375 -5.578125 7.4375 -4.734375 C 8.445312 -3.898438 9.753906 -3.484375 11.359375 -3.484375 Z M 11.359375 -3.484375 "/></g></g></g><g fill="#000000" fill-opacity="1"><g transform="translate(70.632863, 23.374878)"><g><path d="M 9.296875 0.5 C 7.597656 0.5 6.101562 0.144531 4.8125 -0.5625 C 3.53125 -1.269531 2.53125 -2.253906 1.8125 -3.515625 C 1.101562 -4.773438 0.75 -6.257812 0.75 -7.96875 C 0.75 -9.664062 1.101562 -11.148438 1.8125 -12.421875 C 2.53125 -13.703125 3.53125 -14.691406 4.8125 -15.390625 C 6.101562 -16.097656 7.597656 -16.453125 9.296875 -16.453125 C 10.960938 -16.453125 12.429688 -16.09375 13.703125 -15.375 C 14.972656 -14.664062 15.910156 -13.675781 16.515625 -12.40625 L 16.546875 -12.40625 L 16.546875 -23.078125 L 21.78125 -23.078125 L 21.78125 0 L 17.328125 0 L 16.609375 -3.546875 L 16.578125 -3.546875 C 15.972656 -2.285156 15.023438 -1.296875 13.734375 -0.578125 C 12.441406 0.140625 10.960938 0.5 9.296875 0.5 Z M 11.359375 -3.484375 C 12.953125 -3.484375 14.242188 -3.898438 15.234375 -4.734375 C 16.234375 -5.578125 16.734375 -6.65625 16.734375 -7.96875 C 16.734375 -9.269531 16.234375 -10.335938 15.234375 -11.171875 C 14.242188 -12.015625 12.953125 -12.4375 11.359375 -12.4375 C 9.753906 -12.4375 8.445312 -12.015625 7.4375 -11.171875 C 6.4375 -10.335938 5.9375 -9.269531 5.9375 -7.96875 C 5.9375 -6.65625 6.4375 -5.578125 7.4375 -4.734375 C 8.445312 -3.898438 9.753906 -3.484375 11.359375 -3.484375 Z M 11.359375 -3.484375 "/></g></g></g><g fill="#000000" fill-opacity="1"><g transform="translate(93.651571, 23.374878)"><g><path d="M 8.953125 7.125 C 7.648438 7.125 6.375 6.988281 5.125 6.71875 C 3.882812 6.445312 2.757812 6.078125 1.75 5.609375 C 0.75 5.148438 -0.0703125 4.640625 -0.71875 4.078125 L 1.125 0.46875 C 2.007812 1.21875 3.113281 1.832031 4.4375 2.3125 C 5.769531 2.800781 7.15625 3.046875 8.59375 3.046875 C 10.625 3.046875 12.234375 2.585938 13.421875 1.671875 C 14.617188 0.765625 15.21875 -0.460938 15.21875 -2.015625 L 15.21875 -3.421875 L 15.1875 -3.421875 C 14.664062 -2.222656 13.804688 -1.269531 12.609375 -0.5625 C 11.421875 0.144531 10.082031 0.5 8.59375 0.5 C 7.09375 0.5 5.785156 0.191406 4.671875 -0.421875 C 3.566406 -1.035156 2.707031 -1.890625 2.09375 -2.984375 C 1.488281 -4.085938 1.1875 -5.363281 1.1875 -6.8125 L 1.21875 -15.921875 L 6.40625 -15.921875 L 6.40625 -7.5625 C 6.40625 -6.25 6.773438 -5.191406 7.515625 -4.390625 C 8.265625 -3.597656 9.265625 -3.203125 10.515625 -3.203125 C 11.898438 -3.203125 13.03125 -3.632812 13.90625 -4.5 C 14.78125 -5.375 15.21875 -6.53125 15.21875 -7.96875 L 15.21875 -15.921875 L 20.4375 -15.921875 L 20.4375 -1.828125 C 20.4375 -0.00390625 19.957031 1.570312 19 2.90625 C 18.050781 4.25 16.71875 5.285156 15 6.015625 C 13.289062 6.753906 11.273438 7.125 8.953125 7.125 Z M 8.953125 7.125 "/></g></g></g></g></g></svg>